<svg xmlns="http://www.w3.org/2000/svg" width="360" height="180" viewBox="0 0 360 180" role="img" aria-label="Top languages">
<rect x="0.5" y="0.5" width="359" height="179" rx="6" fill="none" stroke="#3D444D"/>
<g font-family="-apple-system, BlinkMacSystemFont, Segoe UI, Helvetica Neue, Helvetica, Arial, sans-serif">
<text x="20" y="34" font-size="14" font-weight="600" fill="#E6EDF3">Top Languages</text>
<clipPath id="b"><rect x="20" y="50" width="320" height="10" rx="5"/></clipPath>
<g clip-path="url(#b)">
<rect x="20.00" y="50" width="131.54" height="10" fill="#3572A5"/>
<rect x="151.54" y="50" width="42.38" height="10" fill="#f1e05a"/>
<rect x="193.92" y="50" width="32.50" height="10" fill="#663399"/>
<rect x="226.42" y="50" width="31.27" height="10" fill="#3178c6"/>
<rect x="257.70" y="50" width="24.42" height="10" fill="#c6538c"/>
<rect x="282.12" y="50" width="23.77" height="10" fill="#DA5B0B"/>
<rect x="305.88" y="50" width="20.02" height="10" fill="#F05138"/>
<rect x="325.90" y="50" width="14.10" height="10" fill="#e34c26"/>
</g>
<circle cx="25" cy="88" r="5" fill="#3572A5"/>
<text x="38" y="92" font-size="12" fill="#9198A1">Python <tspan font-weight="700">41.1%</tspan></text>
<circle cx="25" cy="110" r="5" fill="#f1e05a"/>
<text x="38" y="114" font-size="12" fill="#9198A1">JavaScript <tspan font-weight="700">13.2%</tspan></text>
<circle cx="25" cy="132" r="5" fill="#663399"/>
<text x="38" y="136" font-size="12" fill="#9198A1">CSS <tspan font-weight="700">10.2%</tspan></text>
<circle cx="25" cy="154" r="5" fill="#3178c6"/>
<text x="38" y="158" font-size="12" fill="#9198A1">TypeScript <tspan font-weight="700">9.8%</tspan></text>
<circle cx="195" cy="88" r="5" fill="#c6538c"/>
<text x="208" y="92" font-size="12" fill="#9198A1">SCSS <tspan font-weight="700">7.6%</tspan></text>
<circle cx="195" cy="110" r="5" fill="#DA5B0B"/>
<text x="208" y="114" font-size="12" fill="#9198A1">Jupyter Notebook <tspan font-weight="700">7.4%</tspan></text>
<circle cx="195" cy="132" r="5" fill="#F05138"/>
<text x="208" y="136" font-size="12" fill="#9198A1">Swift <tspan font-weight="700">6.3%</tspan></text>
<circle cx="195" cy="154" r="5" fill="#e34c26"/>
<text x="208" y="158" font-size="12" fill="#9198A1">HTML <tspan font-weight="700">4.4%</tspan></text>
</g></svg>